<svg xmlns="http://www.w3.org/2000/svg" version="1.1" xmlns:xlink="http://www.w3.org/1999/xlink" xmlns:svgjs="http://svgjs.dev/svgjs" width="100%" height="100%" viewBox="0 0 1000 600"><rect width="1000" height="600" x="0" y="0" fill="#e91e63"/><g><circle r="166.66666666666666" cx="473.9433390299479" cy="496.16551337125406" fill="#000000" transform="matrix(0.40679951080769766,0,0,0.4067995108076976,0,98.16009170879212)"/><path d="M500.86921516825686 480.18750576982677L500.86921516825686 468.66341935457683L464.3036004344639 468.66341935457683L464.3036004344639 442.6252132920121L507.0984510683919 442.6252132920121L507.0984510683919 431.0076883382602L452.5926369422099 431.0076883382602L452.5926369422099 521.5496321467238L464.3036004344639 521.5496321467238L464.3036004344639 480.18750576982677L500.86921516825686 480.18750576982677ZM457.07768679030715 421.16549561604677L490.80899918953867 421.16549561604677Q501.86589291227847 421.16549561604677 510.83599260847296 424.4358444636177Q519.8060923046676 427.7373394906893 526.097620563804 433.40594415981224Q532.4202950024411 439.1056950084358 535.8152285680146 446.70536280660065Q539.2101621335883 454.3361767842661 539.2101621335883 462.87022996745117L539.2101621335883 462.87022996745117L539.2101621335883 529.4607617398954Q539.2101621335883 537.9948149230804 535.8152285680146 545.5944827212452Q532.4202950024411 553.19415051941 526.097620563804 558.8939013680335Q519.8060923046676 564.5936522166572 510.83599260847296 567.8951472437287Q501.86589291227847 571.1654960912998 490.80899918953867 571.1654960912998L490.80899918953867 571.1654960912998L457.07768679030715 571.1654960912998Q446.02079306756735 571.1654960912998 437.01954719187216 567.8951472437287Q428.0494474956776 564.5936522166572 421.75791923654117 558.8939013680335Q415.4663909774047 553.19415051941 412.07145741183115 545.5944827212452Q408.6765238462575 537.9948149230804 408.6765238462575 529.4607617398954L408.6765238462575 529.4607617398954L408.6765238462575 462.87022996745117Q408.6765238462575 454.3361767842661 412.07145741183115 446.70536280660065Q415.4663909774047 439.1056950084358 421.75791923654117 433.40594415981224Q428.0494474956776 427.7373394906893 437.01954719187216 424.4358444636177Q446.02079306756735 421.16549561604677 457.07768679030715 421.16549561604677L457.07768679030715 421.16549561604677Z " fill="#e91e63" transform="matrix(0.40679951080769766,0,0,0.4067995108076976,0,98.16009170879212)"/><path d="M816.1360303538037 480.18750576982677L816.1360303538037 468.66341935457683L779.5704156200106 468.66341935457683L779.5704156200106 442.6252132920121L822.3652662539388 442.6252132920121L822.3652662539388 431.0076883382602L767.8594521277566 431.0076883382602L767.8594521277566 521.5496321467238L779.5704156200106 521.5496321467238L779.5704156200106 480.18750576982677L816.1360303538037 480.18750576982677ZM772.344501975854 421.16549561604677L806.0758143750854 421.16549561604677Q817.1327080978253 421.16549561604677 826.1028077940198 424.4358444636177Q835.0729074902143 427.7373394906893 841.3644357493508 433.40594415981224Q847.6871101879879 439.1056950084358 851.0820437535615 446.70536280660065Q854.4769773191351 454.3361767842661 854.4769773191351 462.87022996745117L854.4769773191351 462.87022996745117L854.4769773191351 529.4607617398954Q854.4769773191351 537.9948149230804 851.0820437535615 545.5944827212452Q847.6871101879879 553.19415051941 841.3644357493508 558.8939013680335Q835.0729074902143 564.5936522166572 826.1028077940198 567.8951472437287Q817.1327080978253 571.1654960912998 806.0758143750854 571.1654960912998L806.0758143750854 571.1654960912998L772.344501975854 571.1654960912998Q761.2876082531142 571.1654960912998 752.286362377419 567.8951472437287Q743.3162626812245 564.5936522166572 737.024734422088 558.8939013680335Q730.7332061629515 553.19415051941 727.3382725973779 545.5944827212452Q723.9433390318043 537.9948149230804 723.9433390318043 529.4607617398954L723.9433390318043 529.4607617398954L723.9433390318043 462.87022996745117Q723.9433390318043 454.3361767842661 727.3382725973779 446.70536280660065Q730.7332061629515 439.1056950084358 737.024734422088 433.40594415981224Q743.3162626812245 427.7373394906893 752.286362377419 424.4358444636177Q761.2876082531142 421.16549561604677 772.344501975854 421.16549561604677L772.344501975854 421.16549561604677ZM901.9749010576652 421.16549561604677L935.7062134568966 421.16549561604677Q946.7631071796366 421.16549561604677 955.7643530553318 424.4358444636177Q964.7344527515263 427.7373394906893 971.0259810106627 433.40594415981224Q977.3175092697991 439.1056950084358 980.7124428353727 446.70536280660065Q984.1073764009464 454.3361767842661 984.1073764009464 462.87022996745117L984.1073764009464 462.87022996745117L984.1073764009464 529.4607617398954Q984.1073764009464 537.9948149230804 980.7124428353727 545.5944827212452Q977.3175092697991 553.19415051941 971.0259810106627 558.8939013680335Q964.7344527515263 564.5936522166572 955.7643530553318 567.8951472437287Q946.7631071796366 571.1654960912998 935.7062134568966 571.1654960912998L935.7062134568966 571.1654960912998L901.9749010576652 571.1654960912998Q890.9180073349254 571.1654960912998 881.9479076387308 567.8951472437287Q872.9778079425364 564.5936522166572 866.6862796833999 558.8939013680335Q860.3636052447628 553.19415051941 856.9686716791891 545.5944827212452Q853.5737381136155 537.9948149230804 853.5737381136155 529.4607617398954L853.5737381136155 529.4607617398954L853.5737381136155 462.87022996745117Q853.5737381136155 454.3361767842661 856.9686716791891 446.70536280660065Q860.3636052447628 439.1056950084358 866.6862796833999 433.40594415981224Q872.9778079425364 427.7373394906893 881.9479076387308 424.4358444636177Q890.9180073349254 421.16549561604677 901.9749010576652 421.16549561604677L901.9749010576652 421.16549561604677ZM939.6617782534825 488.5969742350091L941.2813795875177 494.5147483401375L941.2813795875177 521.5496321467238L952.8989045412695 521.5496321467238L952.8989045412695 493.3000473396111L949.0679244626865 483.23983136089294L936.5783064829157 478.75478151279566L948.631877949677 472.93044594616936L952.0268115152506 463.0882532239559L952.0268115152506 450.9412432186925L950.7186719762223 441.75312026599323L943.4927583320656 432.53385113379335L932.5293031478278 431.0076883382602L891.6966618224424 431.0076883382602L891.6966618224424 521.5496321467238L903.4076253146962 521.5496321467238L903.4076253146962 485.1086021309335L931.8752333783136 485.1086021309335L939.6617782534825 488.5969742350091ZM903.4076253146962 442.6252132920121L931.8752333783136 442.6252132920121L939.6617782534825 446.02014685758576L940.4092865614987 452.3739674757236L940.4092865614987 463.96034624997486L938.7896852274636 470.0027050731059L931.8752333783136 473.3976386386795L903.4076253146962 473.3976386386795L903.4076253146962 442.6252132920121ZM1031.636446318977 421.16549561604677L1065.3677587182087 421.16549561604677Q1076.4246524409484 421.16549561604677 1085.3947521371429 424.4358444636177Q1094.3648518333375 427.7373394906893 1100.656380092474 433.40594415981224Q1106.9790545311112 439.1056950084358 1110.3739880966846 446.70536280660065Q1113.7689216622582 454.3361767842661 1113.7689216622582 462.87022996745117L1113.7689216622582 462.87022996745117L1113.7689216622582 529.4607617398954Q1113.7689216622582 537.9948149230804 1110.3739880966846 545.5944827212452Q1106.9790545311112 553.19415051941 1100.656380092474 558.8939013680335Q1094.3648518333375 564.5936522166572 1085.3947521371429 567.8951472437287Q1076.4246524409484 571.1654960912998 1065.3677587182087 571.1654960912998L1065.3677587182087 571.1654960912998L1031.636446318977 571.1654960912998Q1020.5795525962374 571.1654960912998 1011.5783067205421 567.8951472437287Q1002.6082070243476 564.5936522166572 996.3166787652112 558.8939013680335Q990.0251505060747 553.19415051941 986.630216940501 545.5944827212452Q983.2352833749275 537.9948149230804 983.2352833749275 529.4607617398954L983.2352833749275 529.4607617398954L983.2352833749275 462.87022996745117Q983.2352833749275 454.3361767842661 986.630216940501 446.70536280660065Q990.0251505060747 439.1056950084358 996.3166787652112 433.40594415981224Q1002.6082070243476 427.7373394906893 1011.5783067205421 424.4358444636177Q1020.5795525962374 421.16549561604677 1031.636446318977 421.16549561604677L1031.636446318977 421.16549561604677ZM1079.6950012885193 476.10735625523824L1079.6950012885193 448.5118412176398L1078.0442537749836 439.32371826494057L1071.1609481053342 432.3158278772886L1060.1040543825945 431.0076883382602L1036.339519423579 431.0076883382602L1025.3760642393413 432.3158278772886L1018.4927585696921 439.32371826494057L1016.8420110561563 448.5118412176398L1016.8420110561563 500.52596098376785L1018.4927585696921 509.7452301159678L1025.3760642393413 516.628535785617L1036.339519423579 518.0612600426482L1063.9350344611776 518.0612600426482L1076.736114235955 516.4105125291123L1073.9952504398957 504.5749643188556L1063.7170112046729 506.35029655039415L1037.118173911096 506.35029655039415L1030.110283523444 505.2601802678705L1028.5529745484102 498.688336393228L1028.5529745484102 476.10735625523824L1079.6950012885193 476.10735625523824ZM1067.9840377962653 464.61441601948906L1028.5529745484102 464.61441601948906L1028.5529745484102 449.8511269361689L1029.45621375393 443.5907448565331L1037.118173911096 442.4071900355074L1059.4499846130802 442.4071900355074L1066.8939215137416 443.5907448565331L1067.9840377962653 450.0691501926736L1067.9840377962653 464.61441601948906ZM1161.2668454007883 421.16549561604677L1194.9981578000197 421.16549561604677Q1206.0550515227596 421.16549561604677 1215.0562973984547 424.4358444636177Q1224.0263970946494 427.7373394906893 1230.3179253537858 433.40594415981224Q1236.6094536129222 439.1056950084358 1240.004387178496 446.70536280660065Q1243.3993207440694 454.3361767842661 1243.3993207440694 462.87022996745117L1243.3993207440694 462.87022996745117L1243.3993207440694 529.4607617398954Q1243.3993207440694 537.9948149230804 1240.004387178496 545.5944827212452Q1236.6094536129222 553.19415051941 1230.3179253537858 558.8939013680335Q1224.0263970946494 564.5936522166572 1215.0562973984547 567.8951472437287Q1206.0550515227596 571.1654960912998 1194.9981578000197 571.1654960912998L1194.9981578000197 571.1654960912998L1161.2668454007883 571.1654960912998Q1150.2099516780486 571.1654960912998 1141.239851981854 567.8951472437287Q1132.2697522856595 564.5936522166572 1125.978224026523 558.8939013680335Q1119.6555495878858 553.19415051941 1116.2606160223122 545.5944827212452Q1112.8656824567388 537.9948149230804 1112.8656824567388 529.4607617398954L1112.8656824567388 529.4607617398954L1112.8656824567388 462.87022996745117Q1112.8656824567388 454.3361767842661 1116.2606160223122 446.70536280660065Q1119.6555495878858 439.1056950084358 1125.978224026523 433.40594415981224Q1132.2697522856595 427.7373394906893 1141.239851981854 424.4358444636177Q1150.2099516780486 421.16549561604677 1161.2668454007883 421.16549561604677L1161.2668454007883 421.16549561604677ZM1209.3565465498314 476.10735625523824L1209.3565465498314 448.5118412176398L1207.7057990362955 439.32371826494057L1200.7913471871454 432.3158278772886L1189.7344534644058 431.0076883382602L1166.001064684891 431.0076883382602L1155.0376095006532 432.3158278772886L1148.1231576515033 439.32371826494057L1146.503556317468 448.5118412176398L1146.503556317468 500.52596098376785L1148.1231576515033 509.7452301159678L1155.0376095006532 516.628535785617L1166.001064684891 518.0612600426482L1193.5654335429888 518.0612600426482L1206.397659497267 516.4105125291123L1203.6567957012076 504.5749643188556L1193.347410286484 506.35029655039415L1166.7485729929072 506.35029655039415L1159.7406826052552 505.2601802678705L1158.214519809722 498.688336393228L1158.214519809722 476.10735625523824L1209.3565465498314 476.10735625523824ZM1197.6455830575771 464.61441601948906L1158.214519809722 464.61441601948906L1158.214519809722 449.8511269361689L1159.086612835741 443.5907448565331L1166.7485729929072 442.4071900355074L1189.0803836948915 442.4071900355074L1196.524320595553 443.5907448565331L1197.6455830575771 450.0691501926736L1197.6455830575771 464.61441601948906ZM1350.8224938418991 515.5384195030933L1314.5683409031128 474.26973166469844L1352.25521809893 437.01890098189057L1344.3440885057587 427.8307780291913L1299.2444205887805 472.4943994331599L1299.2444205887805 431.0076883382602L1287.6268956350286 431.0076883382602L1287.6268956350286 521.5496321467238L1299.2444205887805 521.5496321467238L1299.2444205887805 487.28883469598077Q1301.113191358821 485.76267190044763 1302.483623256851 484.48567854092Q1303.8540551548806 483.23983136089294 1305.5982412069184 481.71366856535985L1305.5982412069184 481.71366856535985L1341.4163476326953 523.636426173269L1350.8224938418991 515.5384195030933ZM1290.9283906621004 421.16549561604677L1324.6597030613316 421.16549561604677Q1335.7165967840715 421.16549561604677 1344.6866964802662 424.4358444636177Q1353.6567961764606 427.7373394906893 1359.948324435597 433.40594415981224Q1366.270998874234 439.1056950084358 1369.6659324398079 446.70536280660065Q1373.0608660053813 454.3361767842661 1373.0608660053813 462.87022996745117L1373.0608660053813 462.87022996745117L1373.0608660053813 529.4607617398954Q1373.0608660053813 537.9948149230804 1369.6659324398079 545.5944827212452Q1366.270998874234 553.19415051941 1359.948324435597 558.8939013680335Q1353.6567961764606 564.5936522166572 1344.6866964802662 567.8951472437287Q1335.7165967840715 571.1654960912998 1324.6597030613316 571.1654960912998L1324.6597030613316 571.1654960912998L1290.9283906621004 571.1654960912998Q1279.8714969393604 571.1654960912998 1270.8702510636654 567.8951472437287Q1261.9001513674707 564.5936522166572 1255.608623108334 558.8939013680335Q1249.317094849198 553.19415051941 1245.922161283624 545.5944827212452Q1242.5272277180507 537.9948149230804 1242.5272277180507 529.4607617398954L1242.5272277180507 529.4607617398954L1242.5272277180507 462.87022996745117Q1242.5272277180507 454.3361767842661 1245.922161283624 446.70536280660065Q1249.317094849198 439.1056950084358 1255.608623108334 433.40594415981224Q1261.9001513674707 427.7373394906893 1270.8702510636654 424.4358444636177Q1279.8714969393604 421.16549561604677 1290.9283906621004 421.16549561604677L1290.9283906621004 421.16549561604677ZM1437.6580422897823 509.9632533724725L1411.8067133042216 509.9632533724725L1411.8067133042216 521.5496321467238L1475.0957500495942 521.5496321467238L1475.0957500495942 509.9632533724725L1449.3690057820363 509.9632533724725L1449.3690057820363 442.6252132920121L1475.0957500495942 442.6252132920121L1475.0957500495942 431.0076883382602L1411.8067133042216 431.0076883382602L1411.8067133042216 442.6252132920121L1437.6580422897823 442.6252132920121L1437.6580422897823 509.9632533724725ZM1420.5587897439113 421.16549561604677L1454.290102143143 421.16549561604677Q1465.3469958658827 421.16549561604677 1474.348241741578 424.4358444636177Q1483.3183414377722 427.7373394906893 1489.6098696969088 433.40594415981224Q1495.9013979560455 439.1056950084358 1499.2963315216189 446.70536280660065Q1502.6912650871925 454.3361767842661 1502.6912650871925 462.87022996745117L1502.6912650871925 462.87022996745117L1502.6912650871925 529.4607617398954Q1502.6912650871925 537.9948149230804 1499.2963315216189 545.5944827212452Q1495.9013979560455 553.19415051941 1489.6098696969088 558.8939013680335Q1483.3183414377722 564.5936522166572 1474.348241741578 567.8951472437287Q1465.3469958658827 571.1654960912998 1454.290102143143 571.1654960912998L1454.290102143143 571.1654960912998L1420.5587897439113 571.1654960912998Q1409.5018960211717 571.1654960912998 1400.5317963249772 567.8951472437287Q1391.5616966287826 564.5936522166572 1385.2701683696462 558.8939013680335Q1378.947493931009 553.19415051941 1375.5525603654355 545.5944827212452Q1372.1576267998616 537.9948149230804 1372.1576267998616 529.4607617398954L1372.1576267998616 529.4607617398954L1372.1576267998616 462.87022996745117Q1372.1576267998616 454.3361767842661 1375.5525603654355 446.70536280660065Q1378.947493931009 439.1056950084358 1385.2701683696462 433.40594415981224Q1391.5616966287826 427.7373394906893 1400.5317963249772 424.4358444636177Q1409.5018960211717 421.16549561604677 1420.5587897439113 421.16549561604677L1420.5587897439113 421.16549561604677ZM1595.3200029222014 432.53385113379335L1582.5189231474237 431.0076883382602L1556.1381091103517 431.0076883382602L1544.863192131107 432.3158278772886L1537.9487402819573 439.32371826494057L1536.2979927684214 448.5118412176398L1536.2979927684214 504.1389178058462L1537.9487402819573 513.3581869380462L1545.0812153876118 520.2414926076954L1556.1381091103517 521.5496321467238L1582.5189231474237 521.5496321467238L1595.3200029222014 520.0234693511907L1592.5791391261419 508.21906732043465L1582.300899890919 509.9632533724725L1556.7921788798658 509.9632533724725L1549.5662652357091 508.87313708994884L1548.0401024401758 502.3012932153063L1548.0401024401758 449.63310367966415L1549.1302187226997 443.5907448565331L1556.7921788798658 442.4071900355074L1581.8648533779096 442.4071900355074L1593.1397703571542 444.2448146260473L1595.3200029222014 432.53385113379335ZM1550.2203350052232 421.16549561604677L1583.951647404455 421.16549561604677Q1595.0085411271946 421.16549561604677 1603.9786408233892 424.4358444636177Q1612.9487405195837 427.7373394906893 1619.2402687787203 433.40594415981224Q1625.5629432173573 439.1056950084358 1628.9578767829307 446.70536280660065Q1632.3528103485046 454.3361767842661 1632.3528103485046 462.87022996745117L1632.3528103485046 462.87022996745117L1632.3528103485046 529.4607617398954Q1632.3528103485046 537.9948149230804 1628.9578767829307 545.5944827212452Q1625.5629432173573 553.19415051941 1619.2402687787203 558.8939013680335Q1612.9487405195837 564.5936522166572 1603.9786408233892 567.8951472437287Q1595.0085411271946 571.1654960912998 1583.951647404455 571.1654960912998L1583.951647404455 571.1654960912998L1550.2203350052232 571.1654960912998Q1539.1634412824835 571.1654960912998 1530.1621954067882 567.8951472437287Q1521.1920957105938 564.5936522166572 1514.9005674514574 558.8939013680335Q1508.6090391923208 553.19415051941 1505.2141056267474 545.5944827212452Q1501.8191720611737 537.9948149230804 1501.8191720611737 529.4607617398954L1501.8191720611737 529.4607617398954L1501.8191720611737 462.87022996745117Q1501.8191720611737 454.3361767842661 1505.2141056267474 446.70536280660065Q1508.6090391923208 439.1056950084358 1514.9005674514574 433.40594415981224Q1521.1920957105938 427.7373394906893 1530.1621954067882 424.4358444636177Q1539.1634412824835 421.16549561604677 1550.2203350052232 421.16549561604677L1550.2203350052232 421.16549561604677ZM1739.7448372668334 515.5384195030933L1703.5218305075477 474.26973166469844L1741.1775615238644 437.01890098189057L1733.2975781101936 427.8307780291913L1688.1979101932156 472.4943994331599L1688.1979101932156 431.0076883382602L1676.5803852394638 431.0076883382602L1676.5803852394638 521.5496321467238L1688.1979101932156 521.5496321467238L1688.1979101932156 487.28883469598077Q1690.0355347837553 485.76267190044763 1691.4059666817852 484.48567854092Q1692.776398579815 483.23983136089294 1694.5205846318527 481.71366856535985L1694.5205846318527 481.71366856535985L1730.3386910576296 523.636426173269L1739.7448372668334 515.5384195030933ZM1679.8507340870347 421.16549561604677L1713.582046486266 421.16549561604677Q1724.6389402090058 421.16549561604677 1733.640186084701 424.4358444636177Q1742.6102857808955 427.7373394906893 1748.9018140400321 433.40594415981224Q1755.1933422991683 439.1056950084358 1758.5882758647422 446.70536280660065Q1761.9832094303156 454.3361767842661 1761.9832094303156 462.87022996745117L1761.9832094303156 462.87022996745117L1761.9832094303156 529.4607617398954Q1761.9832094303156 537.9948149230804 1758.5882758647422 545.5944827212452Q1755.1933422991683 553.19415051941 1748.9018140400321 558.8939013680335Q1742.6102857808955 564.5936522166572 1733.640186084701 567.8951472437287Q1724.6389402090058 571.1654960912998 1713.582046486266 571.1654960912998L1713.582046486266 571.1654960912998L1679.8507340870347 571.1654960912998Q1668.7938403642947 571.1654960912998 1659.8237406681 567.8951472437287Q1650.8536409719056 564.5936522166572 1644.5621127127692 558.8939013680335Q1638.2394382741322 553.19415051941 1634.8445047085586 545.5944827212452Q1631.449571142985 537.9948149230804 1631.449571142985 529.4607617398954L1631.449571142985 529.4607617398954L1631.449571142985 462.87022996745117Q1631.449571142985 454.3361767842661 1634.8445047085586 446.70536280660065Q1638.2394382741322 439.1056950084358 1644.5621127127692 433.40594415981224Q1650.8536409719056 427.7373394906893 1659.8237406681 424.4358444636177Q1668.7938403642947 421.16549561604677 1679.8507340870347 421.16549561604677L1679.8507340870347 421.16549561604677ZM1863.6131931410196 521.5496321467238L1863.6131931410196 448.5118412176398L1862.0558841659858 439.32371826494057L1855.0479937783339 432.3158278772886L1843.8976615170923 431.0076883382602L1816.5201697359985 431.0076883382602L1796.8046381120707 433.74855213431965L1796.8046381120707 521.5496321467238L1808.422163065823 521.5496321467238L1808.422163065823 443.80876811303784L1816.9562162490079 442.4071900355074L1843.2435917475782 442.4071900355074L1850.7809671867412 443.5907448565331L1851.8710834692652 450.0691501926736L1851.8710834692652 521.5496321467238L1863.6131931410196 521.5496321467238ZM1809.5122793483465 421.16549561604677L1843.2435917475782 421.16549561604677Q1854.3004854703177 421.16549561604677 1863.2705851665123 424.4358444636177Q1872.240684862707 427.7373394906893 1878.5322131218431 433.40594415981224Q1884.8548875604802 439.1056950084358 1888.249821126054 446.70536280660065Q1891.6447546916274 454.3361767842661 1891.6447546916274 462.87022996745117L1891.6447546916274 462.87022996745117L1891.6447546916274 529.4607617398954Q1891.6447546916274 537.9948149230804 1888.249821126054 545.5944827212452Q1884.8548875604802 553.19415051941 1878.5322131218431 558.8939013680335Q1872.240684862707 564.5936522166572 1863.2705851665123 567.8951472437287Q1854.3004854703177 571.1654960912998 1843.2435917475782 571.1654960912998L1843.2435917475782 571.1654960912998L1809.5122793483465 571.1654960912998Q1798.4553856256066 571.1654960912998 1789.4541397499115 567.8951472437287Q1780.4840400537169 564.5936522166572 1774.1925117945802 558.8939013680335Q1767.900983535444 553.19415051941 1764.5060499698702 545.5944827212452Q1761.1111164042968 537.9948149230804 1761.1111164042968 529.4607617398954L1761.1111164042968 529.4607617398954L1761.1111164042968 462.87022996745117Q1761.1111164042968 454.3361767842661 1764.5060499698702 446.70536280660065Q1767.900983535444 439.1056950084358 1774.1925117945802 433.40594415981224Q1780.4840400537169 427.7373394906893 1789.4541397499115 424.4358444636177Q1798.4553856256066 421.16549561604677 1809.5122793483465 421.16549561604677L1809.5122793483465 421.16549561604677ZM1939.1426784301575 421.16549561604677L1972.8739908293892 421.16549561604677Q1983.9308845521286 421.16549561604677 1992.9321304278242 424.4358444636177Q2001.9022301240188 427.7373394906893 2008.193758383155 433.40594415981224Q2014.4852866422916 439.1056950084358 2017.8802202078655 446.70536280660065Q2021.275153773439 454.3361767842661 2021.275153773439 462.87022996745117L2021.275153773439 462.87022996745117L2021.275153773439 529.4607617398954Q2021.275153773439 537.9948149230804 2017.8802202078655 545.5944827212452Q2014.4852866422916 553.19415051941 2008.193758383155 558.8939013680335Q2001.9022301240188 564.5936522166572 1992.9321304278242 567.8951472437287Q1983.9308845521286 571.1654960912998 1972.8739908293892 571.1654960912998L1972.8739908293892 571.1654960912998L1939.1426784301575 571.1654960912998Q1928.085784707418 571.1654960912998 1919.1156850112234 567.8951472437287Q1910.1455853150287 564.5936522166572 1903.8540570558926 558.8939013680335Q1897.5313826172555 553.19415051941 1894.1364490516817 545.5944827212452Q1890.7415154861083 537.9948149230804 1890.7415154861083 529.4607617398954L1890.7415154861083 529.4607617398954L1890.7415154861083 462.87022996745117Q1890.7415154861083 454.3361767842661 1894.1364490516817 446.70536280660065Q1897.5313826172555 439.1056950084358 1903.8540570558926 433.40594415981224Q1910.1455853150287 427.7373394906893 1919.1156850112234 424.4358444636177Q1928.085784707418 421.16549561604677 1939.1426784301575 421.16549561604677L1939.1426784301575 421.16549561604677ZM1995.423824787878 503.9208945493414L1995.423824787878 448.7610106536452L1993.897661992345 439.5417415214453L1987.0143563226957 432.53385113379335L1975.739439343451 431.0076883382602L1946.3685920743142 431.0076883382602L1935.2182598130726 432.53385113379335L1928.2103694254206 439.5417415214453L1926.902229886392 448.7610106536452L1926.902229886392 503.9208945493414L1928.2103694254206 513.3581869380462L1935.4362830695773 520.2414926076954L1946.3685920743142 521.5496321467238L1975.739439343451 521.5496321467238L1987.0143563226957 520.2414926076954L1993.897661992345 513.3581869380462L1995.423824787878 503.9208945493414ZM1983.837446013627 502.7373397283158L1982.311283218094 508.87313708994884L1975.0542233944366 509.9632533724725L1947.0226618438287 509.9632533724725L1939.9213329176746 508.87313708994884L1938.2705854041387 502.3012932153063L1938.2705854041387 449.8511269361689L1939.3607016866622 443.80876811303784L1947.0226618438287 442.6252132920121L1975.0542233944366 442.6252132920121L1982.747329731103 443.80876811303784L1983.837446013627 450.2871734491783L1983.837446013627 502.7373397283158ZM2107.0205859387984 509.3091836029583L2093.9703367280154 434.6206451603386L2083.13146626178 434.6206451603386L2070.2369479485005 509.3091836029583L2067.714107408946 510.18127662897723L2064.848658894884 509.52720685946304L2057.4047219942227 431.0076883382602L2044.8216654759494 433.18792090330754L2053.5737419156394 513.5762101945509L2060.3636090467867 520.2414926076954L2067.496084152441 521.9856786597331L2074.721997796598 520.2414926076954L2081.3872802097426 513.5762101945509L2088.6131938538992 465.2684857890032L2095.7456689595538 513.5762101945509L2102.535536090701 520.2414926076954L2109.636865016855 521.9856786597331L2116.862778661012 520.2414926076954L2123.559207253657 513.5762101945509L2132.311283693347 433.18792090330754L2119.7282271750737 431.0076883382602L2112.3777288129145 509.52720685946304L2109.4188417603505 510.18127662897723L2107.0205859387984 509.3091836029583ZM2102.535536090701 571.1654960912998L2068.8042236914694 571.1654960912998Q2057.74732996873 571.1654960912998 2048.7460840930344 567.8951472437287Q2039.7759843968397 564.5936522166572 2033.4844561377035 558.8939013680335Q2027.1929278785674 553.19415051941 2023.7979943129935 545.5944827212452Q2020.40306074742 537.9948149230804 2020.40306074742 529.4607617398954L2020.40306074742 529.4607617398954L2020.40306074742 462.87022996745117Q2020.40306074742 454.3361767842661 2023.7979943129935 446.70536280660065Q2027.1929278785674 439.1056950084358 2033.4844561377035 433.40594415981224Q2039.7759843968397 427.7373394906893 2048.7460840930344 424.4358444636177Q2057.74732996873 421.16549561604677 2068.8042236914694 421.16549561604677L2068.8042236914694 421.16549561604677L2102.535536090701 421.16549561604677Q2113.592429813441 421.16549561604677 2122.5625295096356 424.4358444636177Q2131.53262920583 427.7373394906893 2137.8241574649664 433.40594415981224Q2144.1468319036035 439.1056950084358 2147.541765469177 446.70536280660065Q2150.9366990347507 454.3361767842661 2150.9366990347507 462.87022996745117L2150.9366990347507 462.87022996745117L2150.9366990347507 529.4607617398954Q2150.9366990347507 537.9948149230804 2147.541765469177 545.5944827212452Q2144.1468319036035 553.19415051941 2137.8241574649664 558.8939013680335Q2131.53262920583 564.5936522166572 2122.5625295096356 567.8951472437287Q2113.592429813441 571.1654960912998 2102.535536090701 571.1654960912998L2102.535536090701 571.1654960912998Z " fill="#000000" transform="matrix(0.40679951080769766,0,0,0.4067995108076976,0,98.16009170879212)"/></g></svg>